<svg xmlns="http://www.w3.org/2000/svg" width="121" height="75" fill="none">
    <g fill="#3B3B45" fill-rule="evenodd" clip-path="url(#a)" clip-rule="evenodd">
        <path
            d="M63.56 35.998c12.06 2.385 25.142 2.825 36.597-1.617 4.168-1.616 7.729-4.069 11.397-6.547a.566.566 0 0 0-.633-.935c-3.598 2.43-7.085 4.844-11.172 6.429-11.293 4.38-24.193 3.908-36.076 1.541l.021-.185c.24-2.016-1.052-4.448-3.186-6.758-3.06-3.312-7.804-6.417-11.623-7.76-1.716-.603-3.257-.847-4.401-.642-.892.159-1.57.58-1.979 1.271-.872 1.473-.248 3.33 1.387 5.199 3.417 3.91 11.173 8.048 14.968 8.968 1.185.287 2.384.56 3.594.81-.033.356-.066.705-.114 1.042-.139.96-.402 1.843-1.19 2.638-1.23 1.237-2.953 1.92-4.821 2.28-2.916.558-6.19.32-8.643.003C34.02 39.972 25.143 32.309 19 23.755 12.8 15.114 9.371 5.562 6.646.146a.564.564 0 1 0-1.008.508c2.742 5.45 6.203 15.06 12.447 23.758 6.303 8.782 15.429 16.632 29.455 18.443 2.556.33 5.965.567 9.001-.015 2.103-.404 4.027-1.202 5.41-2.594 1.242-1.25 1.45-2.663 1.608-4.25Zm-.998-1.356.012-.093c.21-1.762-1.03-3.836-2.896-5.856-2.94-3.183-7.496-6.17-11.168-7.461-1.259-.443-2.407-.686-3.339-.649-.768.032-1.376.25-1.693.788-.302.507-.307 1.076-.112 1.677.227.707.715 1.447 1.375 2.202 3.285 3.757 10.738 7.73 14.385 8.615 1.133.273 2.279.534 3.436.777Z" />
        <path
            d="M112.404 25.739c.025.246-.042.586-.119.95-.181.87-.522 1.841-.664 2.305a.566.566 0 0 0 1.081.33c.174-.57.626-1.866.773-2.869.079-.538.061-1.007-.061-1.31-.208-.516-.729-.717-1.553-.44-.975.33-2.647 1.39-4.358 1.273a.564.564 0 1 0-.076 1.127c1.631.11 3.245-.688 4.353-1.157.21-.088.469-.166.624-.21Z" />
    </g>
    <defs>
        <clipPath id="a">
            <path fill="#fff" d="m.307-16.474 91.467-28.422 28.423 91.467L28.73 74.994z" />
        </clipPath>
    </defs>
</svg>