<!-- <svg width="147" height="188" viewBox="0 0 147 188" fill="none" xmlns="http://www.w3.org/2000/svg">
    <path
        d="M91.9998 164L52.2282 160.02C52.0814 160.005 51.9332 160.023 51.7942 160.073L20.9998 171M65.9994 4.00034L96.3498 20.9186C96.4473 20.9729 96.5531 21.0105 96.6629 21.0299L130.497 27.0006"
        stroke="#62646C" stroke-width="2.637" />
    <path d="M62.6582 4.77615L64.9369 0.658038L69.056 2.93661L66.7763 7.0549L62.6582 4.77615Z"
        fill="#DD6455" />
    <path
        d="M132.847 86.617C137.698 86.617 139.851 92.6761 136.076 95.7056L56.8695 159.266C53.0418 162.333 47.4859 158.836 48.638 154.088L60.5793 104.862C60.732 104.232 60.2552 103.626 59.6075 103.626H13.1503C12.1099 103.628 11.0933 103.317 10.2349 102.732C9.37652 102.147 8.71683 101.318 8.34306 100.352C7.96929 99.3868 7.89905 98.3313 8.14163 97.3253C8.3842 96.3194 8.92817 95.4103 9.70159 94.7184L90.2728 22.3411C93.9792 19.0101 99.8004 22.3561 98.7468 27.2094L86.1392 85.4053C86.0042 86.0284 86.4789 86.617 87.1165 86.617H132.847Z"
        stroke="#62646C" stroke-width="2.637" />
    <path opacity="0.1"
        d="M132.847 85.8898C137.698 85.8898 139.851 91.9741 136.076 95.0163L56.8695 158.841C53.0418 161.921 47.4859 158.409 48.638 153.642L60.5808 104.205C60.7328 103.575 60.2561 102.97 59.6088 102.97H13.1503C12.1099 102.972 11.0933 102.659 10.2349 102.072C9.37652 101.485 8.71683 100.652 8.34306 99.6821C7.96929 98.7127 7.89905 97.6528 8.14163 96.6427C8.3842 95.6326 8.92817 94.7197 9.70159 94.0249L90.2728 21.3467C93.9792 18.0018 99.8004 21.3618 98.7468 26.2353L86.1379 84.679C86.0035 85.3018 86.4782 85.8898 87.1154 85.8898H132.847Z"
        stroke="#62646C" stroke-width="16" />
    <path
        d="M86.2625 86.9066C86.9599 87.1171 87.6959 86.7225 87.9065 86.0251C88.117 85.3277 87.7223 84.5917 87.0249 84.3812C86.3275 84.1707 85.5915 84.5653 85.381 85.2627C85.1705 85.9601 85.5652 86.6961 86.2625 86.9066Z"
        fill="#3B3B45" stroke="#EEB2AA" stroke-width="2.286" />
    <path
        d="M60.2625 104.907C60.9599 105.117 61.6959 104.722 61.9065 104.025C62.117 103.328 61.7223 102.592 61.0249 102.381C60.3275 102.171 59.5915 102.565 59.381 103.263C59.1705 103.96 59.5652 104.696 60.2625 104.907Z"
        fill="#3B3B45" stroke="#EEB2AA" stroke-width="2.286" />
    <path
        d="M95.2625 21.9066C95.9599 22.1171 96.6959 21.7225 96.9065 21.0251C97.117 20.3277 96.7223 19.5917 96.0249 19.3812C95.3275 19.1707 94.5915 19.5653 94.381 20.2627C94.1705 20.9601 94.5652 21.6961 95.2625 21.9066Z"
        fill="#3B3B45" stroke="#EEB2AA" stroke-width="2.29" />
    <path d="M132.562 24.7046L131.76 29.5613L126.902 28.7597L127.705 23.9025L132.562 24.7046Z"
        fill="#DD6455" />
    <path d="M90.0002 161.5L94.9011 161.962L94.4403 166.863L89.5389 166.401L90.0002 161.5Z"
        fill="#DD6455" />
    <path d="M20.3203 168.655L21.8922 173.32L17.2269 174.892L15.6555 170.227L20.3203 168.655Z"
        fill="#DD6455" />
    <path
        d="M52.5 161.5C53.1974 161.711 53.9334 161.316 54.1439 160.618C54.3544 159.921 53.9598 159.185 53.2624 158.975C52.565 158.764 51.829 159.159 51.6185 159.856C51.4079 160.553 51.8026 161.289 52.5 161.5Z"
        fill="#3B3B45" stroke="#EEB2AA" stroke-width="2.286" />
    <path
        d="M137.263 90.9066C137.96 91.1171 138.696 90.7225 138.906 90.0251C139.117 89.3277 138.722 88.5917 138.025 88.3812C137.328 88.1707 136.592 88.5653 136.381 89.2627C136.17 89.9601 136.565 90.6961 137.263 90.9066Z"
        fill="#3B3B45" stroke="#EEB2AA" stroke-width="2.286" />
    <path
        d="M8.26255 101.907C8.95993 102.117 9.69593 101.722 9.90645 101.025C10.117 100.328 9.7223 99.5917 9.02492 99.3812C8.32755 99.1707 7.59154 99.5653 7.38102 100.263C7.17049 100.96 7.56517 101.696 8.26255 101.907Z"
        fill="#3B3B45" stroke="#EEB2AA" stroke-width="2.286" />
</svg> -->
<svg width="198" height="182" viewBox="0 0 198 182" fill="none" xmlns="http://www.w3.org/2000/svg">
    <path opacity="0.1"
        d="M54.1088 148.103C54.1088 148.103 125.497 149.047 155.423 111.891C185.349 74.7361 144.186 38.3651 99.7868 54.9721C83.7468 17.3451 44.4358 9.45707 28.6868 48.7611C12.9398 88.0641 54.1088 148.103 54.1088 148.103Z"
        stroke="#62646C" stroke-width="24" />
    <path
        d="M54.1088 148.103C54.1088 148.103 125.497 149.047 155.423 111.891C185.349 74.7361 144.186 38.3651 99.7868 54.9721C83.7468 17.3451 44.4358 9.45707 28.6868 48.7611C12.9398 88.0641 54.1088 148.103 54.1088 148.103Z"
        stroke="#62646C" stroke-width="2.637" />
    <path d="M185.378 74.7571L125.363 149.526M83.8291 17.7461L100.077 54.9521L144.003 38.8041"
        stroke="#62646C" stroke-width="2.637" />
    <path
        d="M185.43 71.0041L189.19 74.1811L186.013 77.9411L182.253 74.7651L185.43 71.0041ZM146.614 35.2531L148.31 39.8751L143.688 41.5701L141.992 36.9491L146.614 35.2531ZM84.8102 13.7031L86.7502 18.2271L82.2271 20.1691L80.2852 15.6451L84.8102 13.7031Z"
        fill="#2463EB" />
    <path
        d="M99.8436 56.2597C100.541 56.4702 101.277 56.0755 101.488 55.3781C101.698 54.6807 101.303 53.9447 100.606 53.7342C99.9086 53.5237 99.1726 53.9184 98.9621 54.6157C98.7515 55.3131 99.1462 56.0491 99.8436 56.2597Z"
        fill="#3B3B45" stroke="#93c5fd" stroke-width="2.286" />
    <path
        d="M28.1209 50.0355C28.8183 50.2461 29.5543 49.8514 29.7649 49.154C29.9754 48.4566 29.5807 47.7206 28.8833 47.5101C28.1859 47.2996 27.4499 47.6942 27.2394 48.3916C27.0289 49.089 27.4236 49.825 28.1209 50.0355Z"
        fill="#3B3B45" stroke="#93c5fd" stroke-width="2.286" />
    <path
        d="M53.4427 149.28C54.1401 149.49 54.8761 149.096 55.0866 148.398C55.2972 147.701 54.9025 146.965 54.2051 146.754C53.5077 146.544 52.7717 146.938 52.5612 147.636C52.3507 148.333 52.7453 149.069 53.4427 149.28Z"
        fill="#3B3B45" stroke="#93c5fd" stroke-width="2.286" />
    <path
        d="M154.675 114.181C155.976 114.574 157.35 113.837 157.743 112.535C158.136 111.234 157.399 109.86 156.098 109.467C154.796 109.074 153.422 109.811 153.029 111.112C152.636 112.414 153.373 113.788 154.675 114.181Z"
        fill="#93c5fd" />
    <path d="M125.25 145.796L129.055 148.919L125.932 152.725L122.127 149.601L125.25 145.796Z"
        fill="#2463EB" />
</svg>