<svg width="157" height="177" viewBox="0 0 157 177" fill="none" xmlns="http://www.w3.org/2000/svg">
    <path
        d="M120.61 25.3292C143.318 37.1683 96.6362 91.9444 96.6362 91.9444C96.6362 91.9444 127.014 72.5789 133.7 92.4287C138.877 107.801 110.749 126.892 92.9772 137.171C92.9772 137.171 102.671 147.762 97.2292 156.843C86.9652 173.97 2.4052 136.29 12.7492 114.504C17.6252 104.236 32.3712 109.833 32.3712 109.833C35.6792 79.7877 46.9712 27.1306 72.1622 43.5522C81.0722 34.0667 89.4092 36.9047 93.2752 41.1447C101.532 29.1827 111.285 20.4671 120.61 25.3292Z"
        fill="#0E0E10" />
    <path
        d="M72.6562 82.1653C72.6562 82.1653 81.4262 58.3122 93.2762 41.1437M56.7902 74.8017C61.5952 58.7736 66.9752 49.0754 72.1612 43.5532M72.1612 43.5532C46.9702 27.1316 35.6782 79.7886 32.3702 109.834M72.1612 43.5532C81.0712 34.0677 89.4082 36.9057 93.2742 41.1457C101.531 29.1837 111.284 20.4681 120.609 25.3302C143.317 37.1693 96.6352 91.9453 96.6352 91.9453C96.6352 91.9453 127.013 72.5799 133.699 92.4297C138.876 107.802 110.747 126.893 92.9752 137.172M31.3132 122.443C31.4812 119.148 31.8232 114.805 32.3702 109.834M32.3702 109.834C32.3702 109.834 17.6242 104.237 12.7482 114.505C2.40422 136.291 86.9642 173.971 97.2282 156.844C102.67 147.763 92.9752 137.172 92.9752 137.172M78.5352 145.04C78.5352 145.04 85.0952 141.73 92.9752 137.172M62.8452 93.581C58.2012 100.074 55.4922 108.508 54.2602 114.398M81.3372 101.558C76.6222 107.59 73.8672 113.52 70.8672 120.2"
        stroke="#3B3B45" stroke-width="4" />
</svg>