<svg width="500" height="500" viewBox="0 0 500 500" fill="none" xmlns="http://www.w3.org/2000/svg">
<g clip-path="url(#clip0_656_144)">
<path d="M250 500C388.071 500 500 388.071 500 250C500 111.929 388.071 0 250 0C111.929 0 0 111.929 0 250C0 388.071 111.929 500 250 500Z" fill="url(#paint0_linear_656_144)"/>
<path d="M281.728 120.512C282.279 117.926 281.961 115.23 280.822 112.843C279.684 110.456 277.788 108.512 275.431 107.313C273.074 106.115 270.386 105.728 267.787 106.214C265.187 106.7 262.821 108.031 261.056 110L125.056 262C123.511 263.727 122.5 265.864 122.143 268.153C121.786 270.441 122.1 272.785 123.045 274.899C123.991 277.014 125.529 278.81 127.472 280.07C129.416 281.33 131.683 282 134 282H239.152L218.272 379.488C217.72 382.075 218.039 384.771 219.177 387.158C220.316 389.545 222.211 391.489 224.569 392.687C226.926 393.886 229.613 394.273 232.213 393.787C234.812 393.301 237.179 391.97 238.944 390L374.944 238C376.488 236.274 377.5 234.137 377.856 231.848C378.213 229.559 377.9 227.216 376.954 225.102C376.008 222.987 374.471 221.191 372.527 219.931C370.583 218.671 368.316 218 366 218H260.848L281.728 120.512Z" fill="white"/>
</g>
<defs>
<linearGradient id="paint0_linear_656_144" x1="79" y1="63" x2="434" y2="425" gradientUnits="userSpaceOnUse">
<stop stop-color="#38BDF8"/>
<stop offset="1" stop-color="#2563EB"/>
</linearGradient>
<clipPath id="clip0_656_144">
<rect width="500" height="500" fill="white"/>
</clipPath>
</defs>
</svg>
